<svg width="32" height="32" viewBox="0 0 32 32" fill="none" xmlns="http://www.w3.org/2000/svg">
<path d="M28.68 19.4534L27.0133 17.6934C27.2256 16.4107 27.1984 15.0997 26.9333 13.8268L28.56 12.0668C28.6863 11.9261 28.7707 11.7529 28.8037 11.5667C28.8367 11.3806 28.8169 11.189 28.7467 11.0134C28.0708 9.34685 27.0742 7.82924 25.8133 6.54677C25.69 6.42347 25.5362 6.33506 25.3675 6.29056C25.1989 6.24606 25.0215 6.24705 24.8533 6.29344L22.4 6.92011C21.6445 6.3772 20.825 5.92938 19.96 5.58677L19.36 3.29344C19.3154 3.10743 19.2171 2.93868 19.0772 2.80826C18.9373 2.67784 18.762 2.59153 18.5733 2.56011C17.7424 2.40484 16.8986 2.32894 16.0533 2.33344C14.9956 2.33845 13.9428 2.47733 12.92 2.74677C12.7493 2.78968 12.5935 2.87805 12.4691 3.00249C12.3446 3.12692 12.2562 3.28277 12.2133 3.45344L11.5733 5.81344C10.8577 6.13087 10.1783 6.52423 9.54668 6.98677L7.12001 6.38677C6.94963 6.34223 6.77036 6.34475 6.6013 6.39406C6.43224 6.44337 6.27973 6.53762 6.16001 6.66677C4.83438 8.04393 3.82035 9.69002 3.18668 11.4934C3.12523 11.6678 3.11262 11.8556 3.15022 12.0365C3.18782 12.2175 3.2742 12.3847 3.40001 12.5201L5.08001 14.2668C4.99468 14.8277 4.95023 15.3921 4.94668 15.9601C4.94668 16.3601 4.94668 16.7601 5.01335 17.1601L3.26668 19.1068C3.14913 19.2362 3.06758 19.3942 3.03015 19.565C2.99271 19.7358 3.00071 19.9134 3.05334 20.0801C3.60126 21.8431 4.50932 23.473 5.72001 24.8668C5.84178 25.01 6.00143 25.1159 6.18065 25.1725C6.35988 25.2291 6.55144 25.2341 6.73335 25.1868L9.02668 24.6001C9.83007 25.275 10.7286 25.8276 11.6933 26.2401L12.36 28.6268C12.4114 28.7998 12.5074 28.9562 12.6385 29.0803C12.7696 29.2044 12.9311 29.2917 13.1067 29.3334C14.068 29.5508 15.052 29.6628 16.04 29.6668C16.8276 29.6579 17.6098 29.5823 18.3867 29.4401C18.5707 29.4076 18.742 29.3242 18.8811 29.1993C19.0201 29.0744 19.1214 28.913 19.1733 28.7334L19.8 26.4801C20.9513 26.0685 22.0243 25.4643 22.9733 24.6934L25.32 25.2268C25.496 25.2677 25.6798 25.2594 25.8515 25.203C26.0231 25.1466 26.176 25.0441 26.2933 24.9068C27.4626 23.6093 28.3683 22.0968 28.96 20.4534C29.0079 20.277 29.0071 20.0909 28.9578 19.9148C28.9086 19.7388 28.8126 19.5794 28.68 19.4534ZM16.16 21.1468C15.4862 21.1594 14.8166 21.0378 14.1902 20.7891C13.5639 20.5404 12.9932 20.1695 12.5116 19.6981C12.03 19.2267 11.6469 18.6642 11.3848 18.0433C11.1227 17.4224 10.9868 16.7556 10.9849 16.0817C10.9831 15.4077 11.1153 14.7402 11.374 14.1178C11.6327 13.4955 12.0126 12.9309 12.4916 12.4568C12.9707 11.9828 13.5392 11.6088 14.1642 11.3566C14.7892 11.1045 15.4581 10.9792 16.132 10.9881C17.4793 10.9846 18.7728 11.5164 19.728 12.4666C20.6832 13.4168 21.2218 14.7075 21.2253 16.0548C21.2289 17.4021 20.6971 18.6956 19.7469 19.6508C18.7967 20.606 17.506 21.1446 16.1587 21.1481" fill="black"/>
</svg>
