<svg width="32" height="32" viewBox="0 0 32 32" fill="none" xmlns="http://www.w3.org/2000/svg">
<path d="M19.7773 16.0003C19.7773 15.5603 19.6051 15.138 19.2978 14.8235L10.5156 6.04029L10.4472 5.96412C10.1269 5.57135 10.1495 4.99235 10.5156 4.62623C10.8817 4.26011 11.4607 4.23752 11.8535 4.55787L11.9297 4.62623L20.7129 13.4085L20.7177 13.4143L20.8418 13.5462C21.4432 14.2197 21.7773 15.0931 21.7773 16.0003L21.7734 16.1809C21.7291 17.0829 21.3546 17.94 20.7177 18.5862L11.9297 27.3733C11.5391 27.7638 10.9061 27.7638 10.5156 27.3733C10.1252 26.9828 10.1251 26.3497 10.5156 25.9592L19.2929 17.1819C19.5645 16.9063 19.7318 16.547 19.7695 16.1653L19.7773 16.0003Z" fill="black"/>
</svg>
