<svg width="32" height="32" viewBox="0 0 32 32" fill="none" xmlns="http://www.w3.org/2000/svg">
<path d="M3 7.42285L3.00586 7.2041C3.06085 6.11108 3.51936 5.07439 4.29688 4.29688C5.1261 3.46765 6.25015 3.00101 7.42285 3H13.9824C15.6099 3 17.1697 3.64871 18.3193 4.7998L27.7021 14.1826L27.8525 14.3408C28.1938 14.7167 28.4681 15.1492 28.6631 15.6191C28.8859 16.1563 29.001 16.732 29.001 17.3135C29.001 17.895 28.8859 18.4707 28.6631 19.0078C28.4404 19.5447 28.1135 20.0317 27.7021 20.4424L27.7031 20.4434L20.4434 27.7031L20.4424 27.7021C20.0317 28.1135 19.5447 28.4404 19.0078 28.6631C18.4707 28.8859 17.895 29.001 17.3135 29.001C16.732 29.001 16.1563 28.8859 15.6191 28.6631C15.0823 28.4404 14.5942 28.1144 14.1836 27.7031L4.7998 18.3193C4.22994 17.7504 3.77756 17.0748 3.46875 16.3311C3.15988 15.587 3.00057 14.789 3 13.9834V7.42285ZM5.00488 14.1855C5.02855 14.6587 5.13344 15.125 5.31543 15.5635C5.52356 16.0648 5.82872 16.5208 6.21289 16.9043L15.5986 26.29L15.7754 26.4502C15.9591 26.6012 16.1643 26.7249 16.3848 26.8164C16.679 26.9385 16.9949 27.001 17.3135 27.001C17.6318 27.001 17.9471 26.9383 18.2412 26.8164C18.5354 26.6944 18.8033 26.5155 19.0283 26.29L26.2891 19.0283L26.4502 18.8516C26.6013 18.6677 26.7249 18.4618 26.8164 18.2412C26.9383 17.9471 27.001 17.6318 27.001 17.3135C27.001 16.9949 26.9385 16.679 26.8164 16.3848C26.6944 16.0907 26.5154 15.8236 26.29 15.5986L16.9043 6.21289C16.1286 5.4363 15.0774 5 13.9824 5H7.4248L7.18555 5.01172C6.63047 5.06712 6.10883 5.31305 5.71094 5.71094C5.25631 6.16556 5.0005 6.78187 5 7.4248V13.9824L5.00488 14.1855Z" fill="black"/>
<path d="M14.5929 12.1675C14.5929 11.8492 14.5301 11.5338 14.4084 11.2397C14.2865 10.9456 14.1081 10.6778 13.883 10.4526C13.6578 10.2275 13.39 10.0491 13.0959 9.92724C12.8754 9.83591 12.6431 9.77777 12.4064 9.75439L12.1681 9.74267C11.5251 9.74267 10.908 9.99791 10.4533 10.4526C9.99858 10.9073 9.74333 11.5244 9.74333 12.1675C9.74337 12.8105 9.99861 13.4276 10.4533 13.8823C10.908 14.3369 11.5251 14.5923 12.1681 14.5923L12.4064 14.5806C12.643 14.5572 12.8754 14.499 13.0959 14.4077C13.39 14.2859 13.6578 14.1075 13.883 13.8823C14.1081 13.6572 14.2865 13.3894 14.4084 13.0952C14.5302 12.8011 14.5929 12.4858 14.5929 12.1675ZM16.5929 12.1675C16.5929 12.7485 16.4784 13.324 16.256 13.8608C16.0337 14.3976 15.7079 14.8855 15.297 15.2964C14.8862 15.7072 14.3983 16.033 13.8615 16.2554C13.3919 16.4499 12.8925 16.5614 12.3859 16.5864L12.1681 16.5923C10.9947 16.5923 9.869 16.1261 9.03923 15.2964C8.20948 14.4666 7.74337 13.3409 7.74333 12.1675C7.74333 10.994 8.20945 9.86835 9.03923 9.03857C9.86902 8.20878 10.9946 7.74267 12.1681 7.74267L12.3859 7.74755C12.8925 7.77253 13.3919 7.88506 13.8615 8.07958C14.3982 8.30194 14.8862 8.62776 15.297 9.03857C15.7078 9.4494 16.0337 9.93735 16.256 10.4741C16.4784 11.0109 16.5929 11.5864 16.5929 12.1675Z" fill="black"/>
</svg>
