<svg width="32" height="32" viewBox="0 0 32 32" fill="none" xmlns="http://www.w3.org/2000/svg">
<path d="M26.2613 11.6267C26.2167 11.9449 26.0773 12.2422 25.8613 12.4801L17.7413 21.4934C17.5275 21.7479 17.2644 21.9565 16.968 22.1067C16.6739 22.2495 16.3525 22.327 16.0257 22.334C15.6989 22.3409 15.3744 22.277 15.0746 22.1467C14.7619 22.0219 14.4799 21.8309 14.248 21.5867L6.11464 12.4801C5.90023 12.2396 5.7571 11.9441 5.70131 11.6267C5.65728 11.305 5.70383 10.9773 5.83572 10.6806C5.96762 10.3838 6.17964 10.1297 6.44797 9.94675C6.71999 9.77459 7.03292 9.67795 7.35464 9.66675H24.688C25.0132 9.67336 25.3299 9.77208 25.6013 9.95144C25.8727 10.1308 26.0877 10.3835 26.2213 10.6801C26.3293 10.9841 26.344 11.3147 26.2613 11.6267Z" fill="#D93A4A"/>
</svg>
