<svg width="32" height="32" viewBox="0 0 32 32" fill="none" xmlns="http://www.w3.org/2000/svg">
<path d="M15.9997 2.66773C18.6832 2.66606 21.258 3.72662 23.1608 5.6189L23.5046 5.9773C24.2847 6.83332 24.9121 7.81882 25.3581 8.89038C25.7417 9.81211 25.9845 10.7842 26.0817 11.7742C26.5035 11.8169 26.9157 11.9317 27.2995 12.116H27.3005L27.571 12.2615C28.1859 12.6251 28.6806 13.1652 28.988 13.8152C29.3393 14.5582 29.4248 15.3995 29.2302 16.198V16.199L27.1432 24.741L27.1364 24.7683C26.7987 25.9988 26.0899 27.0932 25.11 27.9041L24.9108 28.0623C23.8268 28.8872 22.5007 29.3337 21.1374 29.3337H10.86C9.58192 29.3337 8.33651 28.9413 7.29265 28.2126L7.0866 28.0623C6.0712 27.2899 5.31999 26.2249 4.93328 25.0134L4.86101 24.7683L4.85418 24.741L2.76726 16.197V16.196C2.63893 15.6671 2.63243 15.1155 2.74871 14.5837C2.865 14.0521 3.10082 13.5537 3.43816 13.1267L3.56902 12.9705C3.88433 12.615 4.2672 12.3248 4.69597 12.1169C5.08073 11.9305 5.49494 11.8139 5.91863 11.7722C6.01586 10.783 6.25909 9.81151 6.64226 8.89038C7.15163 7.66588 7.89819 6.55409 8.83855 5.6189L9.20379 5.27417C11.0642 3.59847 13.4841 2.6663 15.9997 2.66773ZM6.08855 13.7654C5.90846 13.786 5.73293 13.8373 5.56902 13.9167C5.35043 14.0227 5.1573 14.1755 5.00652 14.366L5.0075 14.3669C4.85828 14.5559 4.75424 14.7763 4.70281 15.0115C4.6514 15.2467 4.65386 15.4904 4.71062 15.7244H4.70965L6.78972 24.239L6.89422 24.5681C7.16915 25.3213 7.65552 25.9822 8.29754 26.4705V26.4714L8.58074 26.6687C9.25789 27.1012 10.0487 27.3337 10.86 27.3337H21.1374C22.0646 27.3337 22.9653 27.0304 23.6999 26.4714V26.4705L23.9655 26.2507C24.5617 25.7146 24.9942 25.0169 25.2077 24.239L27.2868 15.7244L27.3132 15.5916C27.3616 15.2792 27.3163 14.9583 27.1803 14.6707C27.0249 14.3419 26.761 14.0763 26.4333 13.9187V13.9177C26.2669 13.838 26.0884 13.7877 25.9059 13.7664L25.7223 13.7546H6.27019L6.08855 13.7654ZM9.78289 23.1404V17.947C9.78289 17.3947 10.2306 16.947 10.7829 16.947C11.3351 16.9472 11.7829 17.3948 11.7829 17.947V23.1404C11.7827 23.6924 11.335 24.1402 10.7829 24.1404C10.2307 24.1404 9.78305 23.6925 9.78289 23.1404ZM14.9997 23.1404V17.947C14.9997 17.3948 15.4475 16.9472 15.9997 16.947C16.552 16.947 16.9997 17.3947 16.9997 17.947V23.1404C16.9995 23.6925 16.5519 24.1404 15.9997 24.1404C15.4476 24.1402 14.9998 23.6924 14.9997 23.1404ZM20.2175 23.1404V17.947C20.2175 17.3947 20.6652 16.947 21.2175 16.947C21.7697 16.9471 22.2175 17.3948 22.2175 17.947V23.1404C22.2173 23.6925 21.7696 24.1403 21.2175 24.1404C20.6653 24.1404 20.2176 23.6925 20.2175 23.1404ZM15.5964 4.67652C13.7219 4.76803 11.936 5.50442 10.5417 6.7605L10.2487 7.03687C9.49517 7.78626 8.89711 8.67771 8.48894 9.65894C8.20958 10.3306 8.02526 11.0359 7.93523 11.7546H24.0661C23.9759 11.0358 23.7909 10.3306 23.5114 9.65894C23.1541 8.80032 22.6511 8.01088 22.0261 7.32495L21.7507 7.03687C20.3185 5.61258 18.4119 4.77465 16.404 4.67652L16.0007 4.66675H15.9997L15.5964 4.67652Z" fill="black"/>
</svg>
