<svg width="32" height="32" viewBox="0 0 32 32" fill="none" xmlns="http://www.w3.org/2000/svg">
<path d="M27.3336 11.8847L27.3209 11.6444C27.2656 11.0882 27.0201 10.5649 26.6217 10.1659C26.2234 9.76712 25.701 9.52103 25.1452 9.46475L24.9049 9.45205H7.09535L6.85511 9.46475C6.29915 9.52124 5.77684 9.76798 5.37855 10.1669C4.92336 10.6229 4.66718 11.2404 4.66664 11.8847V13.9433C4.66653 13.9918 4.67647 14.04 4.69496 14.0849C4.71347 14.1297 4.74076 14.1706 4.77503 14.205C4.80921 14.2392 4.84955 14.2665 4.89417 14.2851C4.91677 14.2944 4.94061 14.3018 4.96449 14.3065L5.03675 14.3134L5.15882 14.3212C5.19959 14.3262 5.24 14.3337 5.27992 14.3437L12.3317 16.1093C12.3596 15.9976 12.3931 15.8871 12.4371 15.7802C12.5559 15.4918 12.7305 15.2295 12.9508 15.0087C13.1711 14.788 13.4332 14.6134 13.7213 14.494C14.0093 14.3748 14.3179 14.3132 14.6295 14.3134H17.3727L17.6071 14.3251C18.1493 14.38 18.659 14.6206 19.0475 15.0097C19.3527 15.3155 19.5631 15.6972 19.6666 16.1093L26.7203 14.3446L26.8395 14.3222C26.8796 14.3172 26.9201 14.3144 26.9606 14.3144C27.0595 14.3142 27.1544 14.275 27.2243 14.205C27.2941 14.135 27.3336 14.0402 27.3336 13.9413V11.8847ZM29.3219 14.1757C29.2681 14.7182 29.0287 15.2288 28.6403 15.6181C28.2327 16.0265 27.691 16.2681 27.1188 16.3065L18.984 18.3417C18.6853 18.4165 18.3684 18.3496 18.1256 18.1601C17.8831 17.9705 17.7409 17.6798 17.7409 17.372V16.6864L17.734 16.6132C17.7197 16.5417 17.6847 16.4751 17.6325 16.4228C17.5801 16.3703 17.5135 16.3357 17.442 16.3212L17.3688 16.3134H14.6285C14.58 16.3133 14.5318 16.3231 14.4869 16.3417C14.4421 16.3603 14.4011 16.3874 14.3668 16.4218C14.3325 16.4561 14.3053 16.497 14.2868 16.5419C14.2683 16.5868 14.2583 16.635 14.2584 16.6835V17.372C14.2584 17.68 14.1165 17.9706 13.8737 18.1601C13.6309 18.3496 13.314 18.4165 13.0153 18.3417L4.88441 16.3056C4.62522 16.2889 4.37013 16.2324 4.12953 16.1327C3.84142 16.0134 3.57933 15.8388 3.35902 15.6181C3.1387 15.3973 2.96415 15.1349 2.84535 14.8466C2.72657 14.5583 2.66576 14.2492 2.66664 13.9374V11.8837L2.67249 11.664C2.72747 10.5701 3.18599 9.53254 3.96351 8.75381C4.79284 7.92319 5.91768 7.45478 7.09144 7.45205H24.9088L25.1285 7.45791C26.2224 7.51434 27.2602 7.97408 28.0377 8.75283C28.8669 9.58338 29.3329 10.7091 29.3336 11.8827V13.9413L29.3219 14.1757Z" fill="black"/>
<path d="M4.9875 14.3144C5.50457 14.2888 5.94947 14.661 6.02559 15.162L6.03633 15.2636L6.51289 24.9394C6.56445 25.4098 6.7863 25.8457 7.13692 26.164C7.49044 26.4849 7.95051 26.6638 8.42793 26.6669H23.5754C24.0522 26.6651 24.5113 26.4864 24.8645 26.1659C25.214 25.8486 25.4337 25.4142 25.4846 24.9452L25.9641 15.2636L25.9738 15.162C26.0499 14.661 26.4949 14.2889 27.0119 14.3144C27.5635 14.3416 27.9884 14.8116 27.9611 15.3632L27.4816 25.08C27.4808 25.0969 27.4794 25.1139 27.4777 25.1308C27.3805 26.0973 26.9284 26.9934 26.2092 27.6464C25.4898 28.2994 24.5538 28.6634 23.5822 28.6669H8.41524C7.44528 28.6606 6.51139 28.2964 5.79317 27.6444C5.11974 27.0332 4.67968 26.2091 4.54512 25.3134L4.52266 25.1337L4.51875 25.08L4.03828 15.3632V15.2606C4.06439 14.7545 4.47047 14.3401 4.9875 14.3144Z" fill="black"/>
<path d="M17.7409 18.0583V16.6853C17.7408 16.4791 17.5745 16.3133 17.3707 16.3132H14.6315L14.5582 16.321C14.4867 16.3355 14.4202 16.3702 14.3678 16.4226C14.2981 16.4925 14.2586 16.5875 14.2584 16.6863V18.0603C14.2586 18.2652 14.4246 18.4304 14.6295 18.4304H17.3707C17.5744 18.4304 17.7409 18.2647 17.7409 18.0583ZM19.111 8.45093V5.70776L19.1032 5.63452C19.0888 5.56302 19.0539 5.49647 19.0016 5.44409C18.9493 5.39168 18.8827 5.35699 18.8112 5.34253L18.7379 5.33472H13.2584C13.2099 5.33474 13.1617 5.34443 13.1168 5.36304C13.072 5.38166 13.031 5.40876 12.9967 5.44312C12.9625 5.47749 12.9351 5.51836 12.9166 5.56323C12.8982 5.60808 12.8892 5.65634 12.8893 5.70483V8.4519C12.8893 9.00419 12.4416 9.4519 11.8893 9.4519C11.337 9.4519 10.8893 9.00419 10.8893 8.4519V5.70776C10.8888 5.39719 10.9498 5.08971 11.068 4.80249C11.1867 4.51423 11.3606 4.25175 11.5807 4.03101C11.8008 3.81026 12.0623 3.63488 12.3502 3.51538C12.6381 3.39591 12.9468 3.33474 13.2584 3.33472H18.7438L18.9782 3.34741C19.52 3.40268 20.0295 3.64217 20.4176 4.03101C20.8611 4.47539 21.1104 5.07796 21.111 5.70581V8.45093C21.1109 9.003 20.663 9.45074 20.111 9.45093C19.5588 9.45093 19.1111 9.00312 19.111 8.45093ZM19.7409 18.0583C19.7409 19.3693 18.679 20.4304 17.3707 20.4304H14.6295C13.4018 20.4304 12.3925 19.4981 12.2711 18.3025L12.2584 18.0603V16.6863C12.2586 16.058 12.508 15.4553 12.9518 15.0105C13.3959 14.5655 13.9989 14.3145 14.6276 14.3132H17.3707C18.6816 14.3133 19.7408 15.377 19.7409 16.6853V18.0583Z" fill="black"/>
</svg>
