<svg width="32" height="32" viewBox="0 0 32 32" fill="none" xmlns="http://www.w3.org/2000/svg">
<path d="M15.0003 22.6662V19.4572C13.7307 19.3774 12.488 19.073 11.3128 18.5637L9.23762 21.7522L7.56183 20.6613L9.54816 17.6086C9.20858 17.3856 8.87584 17.1464 8.555 16.886C7.63339 16.1434 6.7998 15.2831 6.06379 14.3303L3.98566 16.1213L3.90558 16.1838C3.49014 16.4745 2.91362 16.4092 2.57551 16.0168C2.21504 15.5985 2.26264 14.9672 2.68097 14.6067L4.93293 12.6643C4.47336 11.8876 4.07078 11.0661 3.73273 10.2072L3.53156 9.66916L3.50226 9.5715C3.38085 9.07926 3.64931 8.56488 4.13703 8.39084C4.62469 8.21695 5.15866 8.44485 5.37629 8.90256L5.41535 8.99729L5.59406 9.47482C5.97375 10.4396 6.44205 11.3463 6.98664 12.1819C6.99234 12.1881 6.99865 12.1939 7.00422 12.2004C7.0626 12.2682 7.10865 12.3423 7.14582 12.4192C7.81351 13.4004 8.58792 14.2789 9.45246 15.0295L9.81281 15.3303L9.81574 15.3332L10.1595 15.6008C10.5345 15.8798 10.9238 16.1267 11.3226 16.3449C11.3851 16.3694 11.4457 16.4016 11.5042 16.4397C11.5072 16.4416 11.5101 16.4436 11.513 16.4455C12.9128 17.1713 14.434 17.5252 15.9671 17.4748H16.0335C17.5633 17.5259 19.0821 17.1739 20.4798 16.4504C20.485 16.4469 20.4901 16.4431 20.4954 16.4397C20.5536 16.4018 20.614 16.3694 20.6761 16.3449C21.1985 16.059 21.7046 15.7231 22.1849 15.3332L22.1878 15.3303L22.5472 15.0295C23.4127 14.2781 24.1866 13.3978 24.8548 12.4153C24.8918 12.3395 24.9388 12.2672 24.9964 12.2004C25.0006 12.1955 25.0048 12.1906 25.0091 12.1858C25.644 11.2124 26.1757 10.143 26.5843 8.99729L26.6243 8.90256C26.842 8.44504 27.3751 8.21703 27.8626 8.39084C28.3828 8.57634 28.6536 9.14896 28.4681 9.66916L28.2669 10.2072C27.9288 11.0663 27.5254 11.8874 27.0657 12.6643L29.3196 14.6076C29.7378 14.9682 29.7845 15.5995 29.4241 16.0178C29.0635 16.436 28.4323 16.4829 28.014 16.1223L25.9349 14.3303C25.1988 15.2831 24.3654 16.1425 23.4437 16.885L23.4446 16.886C23.1235 17.1467 22.7905 17.3863 22.4505 17.6096L24.4378 20.6613C24.7389 21.124 24.6083 21.7428 24.1458 22.0442C23.683 22.3455 23.0634 22.215 22.762 21.7522L20.6859 18.5637C19.5113 19.0728 18.2695 19.3786 17.0003 19.4582V22.6662C17.0003 23.2184 16.5524 23.6661 16.0003 23.6662C15.448 23.6662 15.0003 23.2185 15.0003 22.6662ZM9.23762 21.7522C8.93622 22.2149 8.3166 22.3455 7.85383 22.0442C7.39157 21.7428 7.26091 21.1239 7.56183 20.6613L9.23762 21.7522Z" fill="#0F0F0F"/>
</svg>
