<svg width="32" height="32" viewBox="0 0 32 32" fill="none" xmlns="http://www.w3.org/2000/svg">
<path d="M27.3356 16.0003C27.3356 15.8491 27.3121 15.6988 27.2672 15.555L27.2155 15.4134L27.2125 15.4075C26.2045 13.0125 24.6012 11.0151 22.6129 9.64777C20.7501 8.36685 18.6242 7.68801 16.4635 7.6673L16.0309 7.67121C16.0104 7.67184 15.9899 7.67184 15.9694 7.67121C13.6606 7.5994 11.3727 8.2817 9.38733 9.64777C7.39995 11.0153 5.79463 13.0126 4.78674 15.4075L4.78479 15.4134C4.70559 15.5988 4.66467 15.7987 4.66467 16.0003L4.67249 16.1507C4.68726 16.2963 4.72341 16.439 4.77991 16.5745L4.7887 16.5921L4.98401 17.0364C5.99677 19.2343 7.52226 21.0699 9.38635 22.3519C11.3734 23.7183 13.6606 24.4002 15.9694 24.3284H16.0309C18.3398 24.4002 20.6275 23.7181 22.6129 22.3519C24.6003 20.9843 26.2046 18.987 27.2125 16.5921L27.2155 16.5872L27.2672 16.4456C27.3122 16.3018 27.3355 16.1516 27.3356 16.0003ZM29.3356 16.0003C29.3355 16.4722 29.2398 16.9395 29.0543 17.3734L29.0533 17.3724C27.9064 20.0952 26.0672 22.4025 23.7467 23.9993C21.4314 25.5925 18.7388 26.406 15.9996 26.3275C13.2607 26.4058 10.5696 25.593 8.25354 24.0003C5.94094 22.41 4.10905 20.1139 2.96252 17.4056C2.9574 17.3947 2.95069 17.3845 2.94592 17.3734C2.76046 16.9395 2.66472 16.4722 2.66467 16.0003L2.66956 15.8236C2.69036 15.412 2.78364 15.007 2.94592 14.6273C4.09285 11.9044 5.93301 9.59711 8.25354 8.00031C10.5685 6.40737 13.2608 5.59382 15.9996 5.67219C18.739 5.59365 21.4304 6.40739 23.7467 8.00031C26.0689 9.59731 27.9075 11.9046 29.0543 14.6273L29.1198 14.7913C29.2623 15.1779 29.3356 15.5874 29.3356 16.0003Z" fill="#0F0F0F"/>
<path d="M19.6663 16.0003C19.6663 15.5189 19.5722 15.0417 19.388 14.597C19.2038 14.1522 18.9334 13.7479 18.5931 13.4075C18.2527 13.0671 17.8483 12.7968 17.4037 12.6126C17.0143 12.4513 16.6 12.3588 16.18 12.3382L16.0003 12.3333C15.0279 12.3333 14.0952 12.7199 13.4076 13.4075C12.7199 14.0951 12.3333 15.0278 12.3333 16.0003L12.3382 16.1819C12.3832 17.0881 12.7629 17.9484 13.4076 18.5931C14.0952 19.2805 15.028 19.6663 16.0003 19.6663L16.18 19.6624C16.6 19.6417 17.0143 19.5492 17.4037 19.388C17.8484 19.2037 18.2527 18.9335 18.5931 18.5931C18.9335 18.2526 19.2038 17.8484 19.388 17.4036C19.5723 16.9588 19.6663 16.4817 19.6663 16.0003ZM21.6663 16.0003C21.6663 16.7442 21.5203 17.4809 21.2357 18.1682C20.9509 18.8558 20.5334 19.4809 20.0072 20.0071C19.481 20.5333 18.8558 20.9509 18.1683 21.2356C17.5668 21.4847 16.9275 21.6275 16.2787 21.6595L16.0003 21.6663C14.4976 21.6663 13.0562 21.0696 11.9935 20.0071C10.9971 19.0107 10.4096 17.6813 10.3402 16.2806L10.3333 16.0003C10.3333 14.4974 10.9308 13.0561 11.9935 11.9934C13.0562 10.9307 14.4974 10.3333 16.0003 10.3333L16.2787 10.3401C16.9276 10.3721 17.5668 10.5158 18.1683 10.7649C18.8558 11.0497 19.481 11.4672 20.0072 11.9934C20.5332 12.5196 20.951 13.144 21.2357 13.8313C21.5204 14.5188 21.6663 15.2561 21.6663 16.0003Z" fill="#0F0F0F"/>
</svg>
