<svg width="32" height="32" viewBox="0 0 32 32" fill="none" xmlns="http://www.w3.org/2000/svg">
<path d="M26.2133 21.3467C26.073 21.6388 25.8565 21.8875 25.5867 22.0667C25.316 22.2401 25.0013 22.3334 24.68 22.3334H7.34665C7.02103 22.3327 6.70218 22.2403 6.42665 22.0667C6.15711 21.8882 5.94382 21.6368 5.81163 21.3417C5.67945 21.0466 5.63379 20.7201 5.67999 20.4001C5.73126 20.0774 5.87481 19.7764 6.09332 19.5334L14.2133 10.5067C14.4243 10.2528 14.6883 10.048 14.9867 9.90675C15.2906 9.75912 15.6223 9.67734 15.96 9.66675C16.2973 9.67075 16.6307 9.73341 16.9467 9.85341C17.2533 9.98808 17.5307 10.1827 17.76 10.4267L25.9067 19.5334C26.124 19.7761 26.2627 20.0774 26.3067 20.4001C26.369 20.718 26.3365 21.0472 26.2133 21.3467Z" fill="#1FA342"/>
</svg>
