<svg width="32" height="32" viewBox="0 0 32 32" fill="none" xmlns="http://www.w3.org/2000/svg">
<path d="M11.1196 2.6744L17.9683 2.67343L18.0698 2.67831C18.5743 2.72933 18.9683 3.15552 18.9683 3.67343C18.9683 4.19133 18.5743 4.61752 18.0698 4.66854L17.9683 4.67343H11.1196L11.0747 4.67245C9.61484 4.60572 8.18727 5.11667 7.10107 6.09432C6.02061 7.06686 5.36422 8.42347 5.27197 9.87362V22.1256C5.36398 23.5761 6.02036 24.9331 7.10107 25.9058C8.18727 26.8835 9.61484 27.3945 11.0747 27.3277L11.1196 27.3267H17.9692L18.0718 27.3316C18.5759 27.3829 18.9692 27.8091 18.9692 28.3267C18.9692 28.8444 18.5759 29.2706 18.0718 29.3219L17.9692 29.3267H11.1196C9.15059 29.4048 7.22775 28.7113 5.76221 27.3922C4.37784 26.1459 3.50592 24.4356 3.30518 22.5924L3.27393 22.2223C3.27275 22.2025 3.27197 22.1825 3.27197 22.1627V9.83749C3.27197 9.8177 3.27275 9.79767 3.27393 9.77792C3.39185 7.79457 4.28559 5.93733 5.76221 4.608C7.22775 3.28884 9.15059 2.59638 11.1196 2.6744Z" fill="black"/>
<path d="M27.7264 15.0001L27.8289 15.005C28.3332 15.0562 28.7264 15.4823 28.7264 16.0001C28.7264 16.5179 28.3332 16.944 27.8289 16.9952L27.7264 17.0001H9.92264C9.37035 17.0001 8.92264 16.5524 8.92264 16.0001C8.92264 15.4478 9.37035 15.0001 9.92264 15.0001H27.7264Z" fill="black"/>
<path d="M26.7174 15.9998C26.7173 15.9234 26.6945 15.8496 26.653 15.7869L26.6061 15.7283L20.7369 9.85914L20.6686 9.78297C20.3482 9.39019 20.3708 8.81119 20.7369 8.44507C21.1031 8.07896 21.6821 8.05637 22.0748 8.37672L22.151 8.44507L28.026 14.3201L28.1832 14.4949C28.5274 14.9184 28.7173 15.4493 28.7174 15.9998L28.7057 16.2341C28.6522 16.7775 28.4136 17.2893 28.026 17.6804L22.151 23.5554C21.7605 23.9458 21.1274 23.9458 20.7369 23.5554C20.3465 23.1649 20.3466 22.5319 20.7369 22.1414L26.6061 16.2722C26.6597 16.2181 26.6959 16.1496 26.7106 16.0759L26.7174 15.9998Z" fill="black"/>
</svg>
