<svg width="32" height="32" viewBox="0 0 32 32" fill="none" xmlns="http://www.w3.org/2000/svg">
<path d="M16.2515 2.67725C16.8977 2.7227 17.5247 2.9255 18.0767 3.27002L26.7183 8.63818L26.7358 8.65088C27.393 9.05307 27.9195 9.63718 28.2505 10.3335C28.5444 10.9519 28.6736 11.6341 28.6265 12.314L28.5952 12.605L28.5913 12.6274L26.3599 26.0142C26.2036 26.9509 25.7166 27.8008 24.9878 28.4097C24.2624 29.0156 23.3448 29.3422 22.3999 29.3325L9.60694 29.3335C8.66177 29.3435 7.74382 29.0157 7.01807 28.4097C6.28902 27.8008 5.80234 26.9511 5.646 26.0142L3.41455 12.6274L3.41358 12.6167C3.29391 11.8501 3.40093 11.0652 3.72217 10.3589C4.04356 9.65247 4.56545 9.05565 5.22217 8.64209L5.22705 8.63818L13.8687 3.27002C14.4995 2.87623 15.2284 2.66757 15.9722 2.66748L16.2515 2.67725ZM15.8345 4.67236C15.5588 4.69171 15.2904 4.76917 15.0464 4.89893L14.9263 4.96729L14.9233 4.96924L6.28662 10.3335L6.2876 10.3345C5.96149 10.5399 5.70208 10.8362 5.54248 11.187C5.38438 11.5347 5.33122 11.9208 5.38819 12.2983L7.61866 25.6851L7.65479 25.8569C7.75799 26.2538 7.98331 26.6098 8.3003 26.8745C8.66241 27.1769 9.12057 27.3401 9.59229 27.3335H22.4136L22.5894 27.3276C22.9981 27.2967 23.3887 27.1392 23.7056 26.8745C24.0675 26.5721 24.3096 26.1503 24.3872 25.6851L26.6167 12.3081C26.6692 11.9273 26.6099 11.5393 26.4448 11.1919C26.278 10.8408 26.0106 10.5471 25.6772 10.3472C25.6722 10.3441 25.6676 10.3405 25.6626 10.3374L17.022 4.96924L17.019 4.96729C16.7054 4.77114 16.3421 4.66748 15.9722 4.66748L15.8345 4.67236Z" fill="black"/>
<path d="M19.4345 15.7491C19.4344 15.0724 18.8884 14.5233 18.2128 14.5186L18.204 14.5196H13.7411C13.0608 14.5197 12.5108 15.0703 12.5106 15.7491V20.212C12.5107 20.8912 13.0624 21.4423 13.7411 21.4424H18.204C18.8837 21.4424 19.4345 20.8917 19.4345 20.212V15.7491ZM21.4345 20.212C21.4345 21.9962 19.9883 23.4424 18.204 23.4424H13.7411C11.9587 23.4423 10.5107 21.9966 10.5106 20.212V15.7491C10.5108 13.9642 11.9578 12.5197 13.7411 12.5196H18.1835C18.1903 12.5194 18.1972 12.5186 18.204 12.5186C19.9882 12.5186 21.4344 13.9649 21.4345 15.7491V20.212Z" fill="black"/>
</svg>
