<svg width="32" height="32" viewBox="0 0 32 32" fill="none" xmlns="http://www.w3.org/2000/svg">
<path d="M24.5935 16.9998H16.9998V27.3337H22.8533L23.0251 27.325C23.4236 27.2852 23.7982 27.1087 24.0837 26.823C24.41 26.4966 24.5934 26.054 24.5935 25.5925V16.9998ZM20.1111 4.66675C19.1793 4.66675 18.5912 4.93817 18.1951 5.28003C17.7812 5.63733 17.4972 6.14139 17.3103 6.71655C17.1497 7.21073 17.0753 7.71863 17.0398 8.14819H22.1912C22.4726 7.57645 22.6234 6.76536 22.4509 6.07495C22.3509 5.6749 22.1514 5.34739 21.8328 5.11206C21.5101 4.87386 20.9792 4.6668 20.1111 4.66675ZM11.8894 4.66675C11.0215 4.66675 10.4881 4.87345 10.1619 5.11304C9.83934 5.34998 9.63643 5.67919 9.53394 6.07983C9.35739 6.77013 9.50438 7.57885 9.78296 8.14819H14.9714C14.9407 7.71745 14.8717 7.20671 14.7136 6.71069C14.5312 6.13851 14.25 5.63775 13.8357 5.28198C13.4383 4.94081 12.8423 4.66675 11.8894 4.66675ZM7.41675 25.7644C7.45634 26.1627 7.63238 26.5374 7.91772 26.823C8.2439 27.1494 8.68676 27.3333 9.14819 27.3337H14.9998V16.9998H7.40796V25.5925L7.41675 25.7644ZM27.3337 11.2039C27.3336 10.6202 26.8607 10.1482 26.2771 10.1482H16.9998V14.9998H26.2771C26.8608 14.9998 27.3337 14.5278 27.3337 13.9441V11.2039ZM4.66675 13.9441C4.66675 14.5277 5.13885 14.9996 5.72241 14.9998H14.9998V10.1482H5.72241C5.13893 10.1484 4.66687 10.6204 4.66675 11.2039V13.9441ZM29.3337 13.9441C29.3337 15.5256 28.1331 16.825 26.5935 16.9832V25.5925L26.5886 25.7771C26.5429 26.7017 26.1553 27.5792 25.4978 28.2371C24.7967 28.9384 23.8459 29.3332 22.8542 29.3337H9.14624C8.15461 29.3328 7.20353 28.9376 6.50269 28.2361C5.8456 27.5783 5.45857 26.7013 5.41284 25.7771L5.40796 25.5925V16.9832C3.86772 16.8256 2.66675 15.5261 2.66675 13.9441V11.2039C2.66687 9.51579 4.03436 8.14837 5.72241 8.14819H7.65405C7.42852 7.33734 7.38025 6.42876 7.59644 5.58374C7.79544 4.80604 8.22749 4.05265 8.97729 3.50171C9.72359 2.95343 10.7016 2.66675 11.8894 2.66675C13.2658 2.66675 14.3399 3.07789 15.1394 3.7644C15.4987 4.07296 15.7836 4.42501 16.0144 4.79077C16.2452 4.42556 16.5304 4.07467 16.8875 3.76636C17.6819 3.08056 18.7477 2.66675 20.1111 2.66675C21.2986 2.6668 22.2757 2.95303 23.0203 3.50269C23.7688 4.05529 24.1968 4.8113 24.3914 5.5896C24.6023 6.43363 24.5494 7.33966 24.322 8.14819H26.2771C27.9653 8.14819 29.3336 9.51568 29.3337 11.2039V13.9441Z" fill="black"/>
</svg>
